<svg width="22" height="19" viewBox="0 0 22 19" fill="none" xmlns="http://www.w3.org/2000/svg">
<g clip-path="url(#clip0_121_46447)">
<path d="M20.8265 8.43908L18.6003 6.03088C18.4067 5.82531 18.0518 5.79594 17.7937 5.97215C17.5678 6.14836 17.5356 6.47141 17.7292 6.70635L19.8263 8.96771H1.95185C1.62921 8.96771 1.37109 9.20266 1.37109 9.49634C1.37109 9.79002 1.62921 10.025 1.95185 10.025H19.8263L17.7292 12.2863C17.5356 12.4919 17.5678 12.815 17.7937 13.0205C17.8905 13.1086 18.0195 13.138 18.1486 13.138C18.3099 13.138 18.4712 13.0793 18.568 12.9618L20.7943 10.5536C21.375 9.9075 21.375 9.02645 20.8265 8.43908Z" fill="#3056D3"/>
</g>
<defs>
<clipPath id="clip0_121_46447">
<rect width="20.6492" height="18.7957" fill="white" transform="translate(0.984375 0.0693359)"/>
</clipPath>
</defs>
</svg>
