<svg width="22" height="20" viewBox="0 0 22 20" fill="none" xmlns="http://www.w3.org/2000/svg">
<g clip-path="url(#clip0_121_46284)">
<path d="M11.3095 18.9638C5.82452 18.9638 1.4043 14.911 1.4043 9.91841C1.4043 4.9258 5.82452 0.902344 11.3095 0.902344C16.7944 0.902344 21.2469 4.9258 21.2469 9.91841C21.2469 14.911 16.7944 18.9638 11.3095 18.9638ZM11.3095 1.93023C6.46981 1.93023 2.53355 5.51316 2.53355 9.91841C2.53355 14.3236 6.46981 17.9359 11.3095 17.9359C16.1491 17.9359 20.1177 14.3236 20.1177 9.91841C20.1177 5.51316 16.1491 1.93023 11.3095 1.93023Z" fill="#3056D3"/>
<path d="M10.2126 11.9743C9.9868 11.9743 9.79321 11.9155 9.59962 11.7687L7.47017 9.88913C7.24432 9.68355 7.24432 9.3605 7.47017 9.15492C7.69602 8.94934 8.05093 8.94934 8.27678 9.15492L10.2126 10.8876L14.3425 7.24598C14.5683 7.0404 14.9233 7.0404 15.1491 7.24598C15.375 7.45156 15.375 7.77461 15.1491 7.98019L10.8579 11.7981C10.6321 11.9155 10.4062 11.9743 10.2126 11.9743Z" fill="#3056D3"/>
</g>
<defs>
<clipPath id="clip0_121_46284">
<rect width="20.6492" height="18.7957" fill="white" transform="translate(0.984375 0.520508)"/>
</clipPath>
</defs>
</svg>
