<svg width="22" height="20" viewBox="0 0 22 20" fill="none" xmlns="http://www.w3.org/2000/svg">
<g clip-path="url(#clip0_121_46325)">
<path d="M11.2958 18.9638C5.81085 18.9638 1.39062 14.911 1.39062 9.91841C1.39062 4.9258 5.81085 0.902344 11.2958 0.902344C16.7808 0.902344 21.2332 4.9258 21.2332 9.91841C21.2332 14.911 16.7808 18.9638 11.2958 18.9638ZM11.2958 1.93023C6.45614 1.93023 2.51988 5.51316 2.51988 9.91841C2.51988 14.3236 6.45614 17.9359 11.2958 17.9359C16.1355 17.9359 20.104 14.3236 20.104 9.91841C20.104 5.51316 16.1355 1.93023 11.2958 1.93023Z" fill="#1BBB81"/>
<path d="M10.199 11.9743C9.97312 11.9743 9.77954 11.9155 9.58595 11.7687L7.4565 9.88913C7.23065 9.68355 7.23065 9.3605 7.4565 9.15492C7.68235 8.94934 8.03726 8.94934 8.26311 9.15492L10.199 10.8876L14.3288 7.24598C14.5547 7.0404 14.9096 7.0404 15.1354 7.24598C15.3613 7.45156 15.3613 7.77461 15.1354 7.98019L10.8443 11.7981C10.6184 11.9155 10.3926 11.9743 10.199 11.9743Z" fill="#1BBB81"/>
</g>
<defs>
<clipPath id="clip0_121_46325">
<rect width="20.6492" height="18.7957" fill="white" transform="translate(0.970703 0.520508)"/>
</clipPath>
</defs>
</svg>
