<svg width="21" height="19" viewBox="0 0 21 19" fill="none" xmlns="http://www.w3.org/2000/svg">
<g clip-path="url(#clip0_121_46364)">
<path d="M10.3251 0.451172C4.84015 0.451172 0.419922 4.47463 0.419922 9.46723C0.419922 14.4598 4.84015 18.5127 10.3251 18.5127C15.8101 18.5127 20.2625 14.4598 20.2625 9.46723C20.2625 4.47463 15.8101 0.451172 10.3251 0.451172ZM10.3251 17.4848C5.48544 17.4848 1.54918 13.8725 1.54918 9.46723C1.54918 5.06199 5.48544 1.47906 10.3251 1.47906C15.1648 1.47906 19.1333 5.06199 19.1333 9.46723C19.1333 13.8725 15.1648 17.4848 10.3251 17.4848Z" fill="#DC2626"/>
<path d="M13.2935 6.76551C13.0677 6.55993 12.7128 6.55993 12.4869 6.76551L10.3252 8.73319L8.1635 6.76551C7.93765 6.55993 7.58274 6.55993 7.35689 6.76551C7.13104 6.97109 7.13104 7.29414 7.35689 7.49972L9.51861 9.46739L7.35689 11.4351C7.13104 11.6406 7.13104 11.9637 7.35689 12.1693C7.45368 12.2574 7.615 12.3161 7.74406 12.3161C7.87312 12.3161 8.03444 12.2574 8.13124 12.1693L10.293 10.2016L12.4547 12.1693C12.5515 12.2574 12.7128 12.3161 12.8418 12.3161C12.9709 12.3161 13.1322 12.2574 13.229 12.1693C13.4549 11.9637 13.4549 11.6406 13.229 11.4351L11.1318 9.46739L13.2935 7.49972C13.4871 7.29414 13.4871 6.97109 13.2935 6.76551Z" fill="#DC2626"/>
</g>
<defs>
<clipPath id="clip0_121_46364">
<rect width="20.6492" height="18.7957" fill="white" transform="translate(0 0.0693359)"/>
</clipPath>
</defs>
</svg>
