<svg width="20" height="18" viewBox="0 0 20 18" fill="none" xmlns="http://www.w3.org/2000/svg">
<g clip-path="url(#clip0_121_46469)">
<path d="M5.47087 16.7611C5.23857 16.7611 5.00626 16.7083 4.803 16.5761C4.4255 16.3382 4.22224 15.9153 4.30935 15.4924L5.09338 10.9991L1.69593 7.80088C1.37651 7.51013 1.26036 7.06079 1.40555 6.66432C1.55074 6.26785 1.8992 6.00354 2.33477 5.92424L7.06796 5.23702L9.18773 1.14015C9.391 0.77011 9.79753 0.532227 10.2331 0.532227C10.6977 0.532227 11.0752 0.77011 11.2785 1.14015L13.4563 5.21059L18.1895 5.89781C18.6251 5.95067 18.9735 6.24142 19.1187 6.63789C19.2639 7.03436 19.1478 7.4837 18.8283 7.77444L15.4019 10.9726L16.2149 15.4924C16.302 15.9153 16.0988 16.3382 15.7213 16.5761C15.3728 16.814 14.9082 16.8404 14.5017 16.6554L10.2621 14.5409L6.02259 16.6554C5.84836 16.7347 5.67414 16.7611 5.47087 16.7611ZM2.42188 7.16652L5.93548 10.444C6.10971 10.6026 6.19682 10.8405 6.13874 11.0784L5.32568 15.651C5.29664 15.7567 5.38376 15.8096 5.41279 15.836C5.47087 15.8889 5.52895 15.8625 5.55798 15.836L9.91368 13.6687C10.146 13.5629 10.4073 13.5629 10.6396 13.6687L14.9953 15.8096C15.0244 15.8096 15.0534 15.836 15.1405 15.8096C15.1696 15.7832 15.2276 15.7303 15.2276 15.6246L14.4146 11.0255C14.3855 10.7876 14.4436 10.5762 14.6178 10.3912L18.1024 7.11366C18.1895 7.03436 18.1605 6.95507 18.1605 6.90221C18.1605 6.87577 18.1024 6.79648 18.0443 6.79648L13.1659 6.10926C12.9046 6.08283 12.7013 5.92424 12.5852 5.71279L10.4073 1.53662C10.3783 1.45733 10.3202 1.45733 10.2621 1.45733C10.2331 1.45733 10.175 1.48376 10.1169 1.53662L7.9391 5.73922C7.82295 5.95067 7.61968 6.10926 7.35834 6.13569L2.509 6.84934C2.42188 6.84934 2.39284 6.92864 2.39284 6.95507C2.36381 6.9815 2.33477 7.08723 2.42188 7.16652Z" fill="#3056D3"/>
</g>
<defs>
<clipPath id="clip0_121_46469">
<rect width="18.5843" height="16.9161" fill="white" transform="translate(0.970703 0.188477)"/>
</clipPath>
</defs>
</svg>
